<svg id="icon_Imotion_color_1" xmlns="http://www.w3.org/2000/svg" viewBox="0 0 32 32">
  <defs>
    <style>
      .cls-1 {
        fill: #fff;
        opacity: 0.1;
      }

      .cls-2 {
        fill: #0b0;
        fill-rule: evenodd;
      }
    </style>
  </defs>
  <circle id="Ellipse_64" data-name="Ellipse 64" class="cls-1" cx="16" cy="16" r="16"/>
  <path id="imoticon_1" class="cls-2" d="M26,42A16,16,0,1,0,10,26,16,16,0,0,0,26,42ZM21.619,24.045c1.8,0,2.1,1.955,2.476,1.574,0-2.667-.74-4.571-2.476-4.571s-2.476,1.9-2.476,4.571C19.524,26,19.82,24.045,21.619,24.045Zm8.762,0c1.8,0,2.1,1.955,2.476,1.574,0-2.667-.74-4.571-2.476-4.571s-2.476,1.9-2.476,4.571C28.286,26,28.582,24.045,30.381,24.045ZM26,37.81c5.891,0,10.667-4.349,10.667-9.714,0-.571-4.776,1.3-10.667,1.3s-10.667-1.876-10.667-1.3C15.333,33.46,20.109,37.81,26,37.81Zm0,0" transform="translate(-10 -10)"/>
</svg>
