<svg id="icon_Imotion_color_2" xmlns="http://www.w3.org/2000/svg" viewBox="0 0 32 32">
  <defs>
    <style>
      .cls-1 {
        fill: #fff;
        opacity: 0.1;
      }

      .cls-2 {
        fill: #f5ed00;
        fill-rule: evenodd;
      }
    </style>
  </defs>
  <circle id="Ellipse_65" data-name="Ellipse 65" class="cls-1" cx="16" cy="16" r="16"/>
  <path id="imoticon_2" class="cls-2" d="M26,42A16,16,0,1,0,10,26,16,16,0,0,0,26,42ZM21.142,25.938c.754,0,2.6.384,2.6-.379,0-1.065-.972-1.494-2.738-1.494a3.227,3.227,0,0,0-3.022,2.457C17.985,27.339,20.388,25.938,21.142,25.938ZM19.864,19.9c1.343,0,2.75.365,2.75-.14,0-.662-.985-1.024-2.75-1.024s-4.637,1.62-4.637,2.372C15.227,21.921,17.857,19.9,19.864,19.9Zm11.01,6.042c-.754,0-2.6.384-2.6-.379,0-1.065.972-1.494,2.738-1.494a3.227,3.227,0,0,1,3.022,2.457C34.031,27.339,31.628,25.938,30.874,25.938Zm1.2-6.042c-1.343,0-2.75.365-2.75-.14,0-.662.985-1.024,2.75-1.024s4.637,1.62,4.637,2.372C36.71,21.921,34.08,19.9,32.073,19.9ZM26.317,35.551c3.742,0,3.893-3.1,3.893-3.1a6.435,6.435,0,0,1-3.893,1.411c-2.692,0-4.543-1.628-4.543-1.411A4.48,4.48,0,0,0,26.317,35.551Zm0,0" transform="translate(-10 -10)"/>
</svg>
