<svg id="icon_Imotion_color_3" xmlns="http://www.w3.org/2000/svg" viewBox="0 0 32 32">
  <defs>
    <style>
      .cls-1 {
        fill: #fff;
        opacity: 0.1;
      }

      .cls-2 {
        fill: #ff9126;
        fill-rule: evenodd;
      }
    </style>
  </defs>
  <circle id="Ellipse_66" data-name="Ellipse 66" class="cls-1" cx="16" cy="16" r="16"/>
  <path id="imoticon_3" class="cls-2" d="M26,42A16,16,0,1,0,10,26,16,16,0,0,0,26,42Zm5.187-21.533c.239-.217,2.415,1.912,3.465,2.255s3.465.313,3.465.849c0,.748-1.943,1.475-3.844.641S30.948,20.684,31.187,20.467Zm-10.238,0c-.239-.217-2.415,1.912-3.465,2.255s-3.465.313-3.465.849c0,.748,1.943,1.475,3.844.641S21.187,20.684,20.949,20.467Zm11.358,8.469a13.551,13.551,0,0,1-4.275-1.352,4.066,4.066,0,0,0,8.089-.019A9.679,9.679,0,0,1,32.307,28.936Zm-12.19,0a13.551,13.551,0,0,1-4.275-1.352,3.9,3.9,0,0,0,4.045,3.645,3.915,3.915,0,0,0,4.045-3.664A9.679,9.679,0,0,1,20.117,28.936Zm3.476,5.826s-1.021.251-1.021.952,1.021.952,1.021.952H28.4s1.029-.286,1.029-.952-1.029-.952-1.029-.952Zm0,0" transform="translate(-10 -10)"/>
</svg>
